<svg width="254" height="250" viewBox="0 0 254 250" fill="none" xmlns="http://www.w3.org/2000/svg">
<g clip-path="url(#clip0_286_2938)">
<mask id="mask0_286_2938" style="mask-type:luminance" maskUnits="userSpaceOnUse" x="-32" y="-4" width="286" height="255">
<path d="M254 -3.85767H-31.7397V250.007H254V-3.85767Z" fill="white"/>
</mask>
<g mask="url(#mask0_286_2938)">
<path d="M337.475 251.645C330.575 227.76 330.223 223.709 342.491 197.625C355.774 169.342 355.008 134.291 337.661 105.753C322.985 81.605 299.601 67.3635 274.983 64.6949C245.327 61.5286 241.497 56.6893 231.147 37.0623C220.97 17.705 201.788 4.56967 179.791 4.46597C155.938 4.34153 135.432 19.5094 126.096 41.48C118.396 59.5998 108.066 63.7202 90.6372 54.9679C63.5826 41.3417 30.7597 50.6816 13.8549 78.3073C-2.60144 105.152 1.54541 140.341 22.1555 162.27C45.353 186.978 41.3235 203.183 27.7306 218.123C17.6498 229.184 14.1861 246.232 20.2166 261.497C26.5093 277.453 41.2821 286.71 56.3929 285.694C81.412 284.041 97.6131 293.236 100.014 331.778C101.491 357.198 118.775 379.314 142.973 384.188C166.578 388.944 189.334 375.788 199.352 353.617C206.501 337.82 216.927 333.679 237.074 344.443C274.217 364.27 318.804 346.455 334.984 305.618C341.762 288.399 342.626 269.41 337.441 251.645H337.475Z" fill="#75EAAA"/>
<g opacity="0.42">
<path d="M316.016 244.262C310.041 223.467 309.737 219.941 320.336 197.251C331.803 172.633 331.141 142.131 316.147 117.292C303.458 96.2612 283.256 83.8656 261.983 81.5358C236.364 78.7704 233.003 74.5602 224.116 57.4843C215.326 40.6503 198.752 29.2226 179.743 29.1396C159.154 28.9737 141.448 42.1712 133.355 61.259C126.71 77.0283 117.788 80.6163 102.726 73.0116C79.349 61.1414 50.9765 69.2646 36.3901 93.3023C22.1762 116.704 25.7642 147.358 43.5798 166.418C63.631 187.932 60.1396 202.035 48.4097 215.032C39.702 224.711 36.7144 239.499 41.9238 252.786C47.3609 266.675 60.1327 274.729 73.1805 273.865C94.7979 272.441 108.798 280.446 110.875 313.962C112.165 336.085 127.096 355.338 148.01 359.59C168.399 363.738 188.03 352.29 196.71 332.994C202.885 319.251 211.89 315.649 229.305 325.023C261.397 342.307 299.919 326.8 313.891 291.259C319.754 276.254 320.501 259.729 316.016 244.255V244.262Z" fill="#00AD4A"/>
</g>
<path d="M294.627 236.865C289.59 219.167 289.327 216.173 298.249 196.85C307.909 175.903 307.329 149.936 294.696 128.795C284.001 110.897 266.965 100.34 249.039 98.3767C227.449 95.9986 224.634 92.4313 217.12 77.8925C209.702 63.5681 195.73 53.8341 179.722 53.7304C162.369 53.6198 147.43 64.8402 140.641 81.0865C135.045 94.5122 127.531 97.554 114.835 91.0693C95.1359 80.962 71.2415 87.8685 58.9458 108.353C46.9745 128.256 49.9759 154.347 65.0247 170.573C81.9226 188.886 78.997 200.888 69.1094 211.949C61.7334 220.1 59.2218 232.703 63.6171 244.041C68.2055 255.856 78.9625 262.707 89.961 262.015C108.17 260.812 119.969 267.622 121.735 296.174C122.825 315.006 135.418 331.432 153.033 335.02C170.221 338.546 186.781 328.798 194.067 312.4C199.263 300.702 206.853 297.64 221.522 305.618C248.57 320.315 281.02 307.146 292.784 276.9C297.718 264.128 298.345 250.09 294.571 236.927L294.627 236.865Z" fill="#2EDB84"/>
<path d="M280.061 230.629C275.673 215.502 275.445 212.938 283.249 196.415C287.551 187.218 289.522 177.099 288.988 166.956C288.454 156.813 285.43 146.959 280.185 138.267C270.849 122.967 255.98 113.952 240.324 112.266C221.487 110.199 219.01 107.157 212.462 94.7126C205.99 82.4691 193.798 74.1593 179.805 74.0763C164.625 73.9934 151.584 83.6029 145.643 97.4987C140.751 108.975 134.183 111.588 123.094 106.044C105.886 97.4158 85.0069 103.334 74.2568 120.831C63.7896 137.859 66.4254 160.168 79.5284 174.029C94.2735 189.674 91.7136 199.934 83.068 209.398C79.8005 213.079 77.6216 217.6 76.7758 222.453C75.9299 227.306 76.4506 232.299 78.2795 236.872C82.2814 246.972 91.6791 252.834 101.291 252.205C117.202 251.161 127.51 256.976 129.028 281.387C129.967 297.488 140.958 311.494 156.345 314.571C171.359 317.578 185.829 309.247 192.225 295.213C196.779 285.21 203.41 282.583 216.223 289.399C239.841 301.954 268.2 290.664 278.501 264.801C282.819 253.902 283.377 241.869 280.088 230.615L280.061 230.629Z" fill="#35D38B"/>
<path d="M266.813 225.969C263.004 212.792 262.811 210.552 269.573 196.159C273.313 188.138 275.026 179.319 274.561 170.478C274.097 161.637 271.469 153.047 266.91 145.463C258.809 132.134 245.906 124.274 232.313 122.801C215.94 121.039 213.808 118.384 208.122 107.558C202.506 96.8834 191.921 89.6382 179.777 89.5829C166.619 89.5069 155.289 97.8789 150.108 109.984C145.857 119.981 140.158 122.255 130.533 117.423C115.601 109.901 97.475 115.059 88.1463 130.302C79.066 145.138 81.3499 164.579 92.7278 176.663C105.534 190.296 103.312 199.242 95.8052 207.483C92.9703 210.697 91.082 214.636 90.351 218.862C89.62 223.088 90.075 227.435 91.6653 231.417C95.1152 240.224 103.292 245.333 111.634 244.78C125.433 243.875 134.403 248.928 135.707 270.215C136.522 284.242 146.057 296.485 159.423 299.14C172.45 301.76 185.007 294.501 190.541 282.264C194.488 273.547 200.242 271.258 211.365 277.197C231.872 288.141 256.484 278.31 265.419 255.766C269.168 246.267 269.653 235.789 266.799 225.983L266.813 225.969Z" fill="#36BA81"/>
<path d="M252.585 222.948C249.743 211.963 249.646 210.117 255.808 198.433C259.208 191.949 260.921 184.709 260.789 177.385C260.656 170.061 258.682 162.889 255.049 156.532C252.091 151.276 247.971 146.768 243.005 143.355C238.039 139.942 232.359 137.714 226.4 136.843C212.6 134.914 210.855 132.66 206.356 123.569C201.912 114.582 193.156 108.36 182.896 107.917C171.746 107.475 161.9 114.049 157.173 123.894C153.275 132.024 148.383 133.732 140.372 129.473C127.952 122.836 112.434 126.562 104.085 138.868C100.201 144.641 98.3394 151.542 98.794 158.49C99.2486 165.437 101.993 172.036 106.597 177.251C117.043 188.865 114.877 196.18 108.294 202.768C105.804 205.301 104.085 208.492 103.337 211.967C102.589 215.442 102.844 219.059 104.071 222.395C105.257 225.832 107.498 228.805 110.472 230.888C113.446 232.972 117.002 234.06 120.631 233.996C132.361 233.643 139.785 238.088 140.282 255.676C140.558 267.27 148.279 277.612 159.519 280.218C170.428 282.755 181.254 277.114 186.298 267.18C189.899 260.1 194.84 258.379 204.093 263.599C221.142 273.215 242.284 265.818 250.522 247.484C253.982 239.78 254.712 231.124 252.592 222.948H252.585Z" fill="#2A9169"/>
<path d="M242.001 217.604C239.572 208.672 239.489 207.172 244.761 197.673C247.447 192.843 248.913 187.428 249.031 181.901C249.148 176.373 247.913 170.9 245.434 165.961C242.955 161.021 239.306 156.765 234.807 153.563C230.309 150.361 225.096 148.312 219.624 147.593C207.812 146.03 206.335 144.198 202.492 136.801C200.484 132.937 197.451 129.704 193.727 127.456C190.003 125.208 185.732 124.033 181.384 124.06C177.037 124.087 172.781 125.315 169.085 127.61C165.389 129.904 162.397 133.175 160.437 137.064C157.111 143.673 152.923 145.062 146.078 141.599C140.922 138.98 135.008 138.27 129.38 139.594C123.753 140.918 118.772 144.191 115.318 148.836C111.865 153.481 110.159 159.198 110.502 164.98C110.845 170.762 113.216 176.236 117.195 180.438C126.124 189.882 124.288 195.827 118.651 201.178C116.494 203.228 115.008 205.885 114.39 208.8C113.772 211.714 114.051 214.747 115.191 217.499C116.33 220.25 118.276 222.591 120.772 224.21C123.267 225.83 126.194 226.653 129.166 226.571C139.192 226.287 145.54 229.896 145.961 244.193C146.078 248.824 147.722 253.286 150.635 256.884C153.549 260.481 157.568 263.012 162.067 264.081C166.566 265.151 171.292 264.699 175.508 262.796C179.723 260.892 183.192 257.645 185.373 253.56C188.451 247.801 192.673 246.405 200.553 250.65C205.518 253.306 211.15 254.448 216.755 253.935C222.36 253.421 227.692 251.276 232.094 247.762C236.496 244.248 239.775 239.52 241.527 234.161C243.279 228.802 243.427 223.046 241.953 217.604H242.001Z" fill="#417865"/>
</g>
</g>
<defs>
<clipPath id="clip0_286_2938">
<rect width="254" height="250" fill="white"/>
</clipPath>
</defs>
</svg>
