<svg width="44" height="44" viewBox="0 0 44 44" fill="none" xmlns="http://www.w3.org/2000/svg">
<rect width="44" height="44" rx="22" fill="#353945"/>
<path d="M15.72 26.6734L15.7067 26.6867C15.5267 26.2934 15.4134 25.8467 15.3667 25.3534C15.4134 25.8401 15.54 26.2801 15.72 26.6734Z" fill="white"/>
<path d="M20 20.92C20.8763 20.92 21.5867 20.2097 21.5867 19.3334C21.5867 18.4571 20.8763 17.7467 20 17.7467C19.1237 17.7467 18.4133 18.4571 18.4133 19.3334C18.4133 20.2097 19.1237 20.92 20 20.92Z" fill="white"/>
<path d="M24.7933 15.3334H19.2066C16.7799 15.3334 15.3333 16.78 15.3333 19.2067V24.7934C15.3333 25.52 15.4599 26.1534 15.7066 26.6867C16.2799 27.9534 17.5066 28.6667 19.2066 28.6667H24.7933C27.2199 28.6667 28.6666 27.22 28.6666 24.7934V23.2667V19.2067C28.6666 16.78 27.2199 15.3334 24.7933 15.3334ZM27.5799 22.3334C27.0599 21.8867 26.2199 21.8867 25.6999 22.3334L22.9266 24.7134C22.4066 25.16 21.5666 25.16 21.0466 24.7134L20.8199 24.5267C20.3466 24.1134 19.5933 24.0734 19.0599 24.4334L16.5666 26.1067C16.4199 25.7334 16.3333 25.3 16.3333 24.7934V19.2067C16.3333 17.3267 17.3266 16.3334 19.2066 16.3334H24.7933C26.6733 16.3334 27.6666 17.3267 27.6666 19.2067V22.4067L27.5799 22.3334Z" fill="white"/>
</svg>
